 <svg width="40"
      height="40"
      viewBox="0 0 70 70"
      fill="none"
      xmlns="http://www.w3.org/2000/svg">
      <path
        d="M35 1C53.7777 1 69 16.2223 69 35C69 53.7777 53.7777 69 35 69C16.2223 69 1 53.7777 1 35C1 16.2223 16.2223 1 35 1Z"
        fill="white"
      />
      <path
        d="M35 1C53.7777 1 69 16.2223 69 35C69 53.7777 53.7777 69 35 69C16.2223 69 1 53.7777 1 35C1 16.2223 16.2223 1 35 1Z"
        stroke="#333333"
        strokeWidth="2"
      />
      <path
        d="M21.1797 28.6875C21.1797 29.1406 21.1484 29.5938 21.0859 30.0469C20.1953 30.1042 19.3099 30.1979 18.4297 30.3281C17.5495 30.4531 16.6693 30.5781 15.7891 30.7031C15.9245 31.0781 16.1354 31.3776 16.4219 31.6016C16.7135 31.8255 17.0599 31.9375 17.4609 31.9375C17.6693 31.9375 17.8958 31.8984 18.1406 31.8203C18.3906 31.7422 18.638 31.6458 18.8828 31.5312C19.1276 31.4115 19.362 31.2839 19.5859 31.1484C19.8099 31.013 20.0026 30.8906 20.1641 30.7812L19.7891 34.3281C19.5859 34.4844 19.3646 34.6172 19.125 34.7266C18.8906 34.8359 18.6458 34.9245 18.3906 34.9922C18.1354 35.0599 17.8776 35.1094 17.6172 35.1406C17.3568 35.1719 17.1016 35.1875 16.8516 35.1875C16.3359 35.1875 15.8646 35.1172 15.4375 34.9766C15.0104 34.8359 14.6224 34.6406 14.2734 34.3906C13.9297 34.1354 13.6276 33.8359 13.3672 33.4922C13.1068 33.1484 12.8906 32.7734 12.7188 32.3672C12.5469 31.9609 12.4167 31.5312 12.3281 31.0781C12.2396 30.625 12.1953 30.1667 12.1953 29.7031C12.1953 29.2188 12.2396 28.7344 12.3281 28.25C12.4167 27.7656 12.5495 27.2995 12.7266 26.8516C12.9089 26.4036 13.1354 25.9896 13.4062 25.6094C13.6823 25.224 14.0026 24.888 14.3672 24.6016C14.7318 24.3151 15.1432 24.0911 15.6016 23.9297C16.0651 23.7682 16.5755 23.6875 17.1328 23.6875C17.5964 23.6875 18.0182 23.7526 18.3984 23.8828C18.7839 24.0078 19.125 24.1849 19.4219 24.4141C19.724 24.638 19.9844 24.9062 20.2031 25.2188C20.4271 25.5312 20.6094 25.875 20.75 26.25C20.8958 26.6198 21.0026 27.013 21.0703 27.4297C21.1432 27.8411 21.1797 28.2604 21.1797 28.6875ZM18.0547 28.2812C18.0547 28.1354 18.0391 27.987 18.0078 27.8359C17.9766 27.6797 17.9245 27.5391 17.8516 27.4141C17.7839 27.2891 17.6927 27.1875 17.5781 27.1094C17.4635 27.026 17.3203 26.9844 17.1484 26.9844C16.9401 26.9844 16.7552 27.0417 16.5938 27.1562C16.4375 27.2656 16.3021 27.4062 16.1875 27.5781C16.0729 27.7448 15.9792 27.9271 15.9062 28.125C15.8333 28.3229 15.7786 28.5052 15.7422 28.6719L18.0547 28.4531V28.2812ZM31.1094 24.0469L28.25 34.6094L24.375 34.8281L20.8594 24.625L24.5625 24.2812L26.0625 30.2188L27.5156 23.8125L31.1094 24.0469ZM39.6641 28.6875C39.6641 29.1406 39.6328 29.5938 39.5703 30.0469C38.6797 30.1042 37.7943 30.1979 36.9141 30.3281C36.0339 30.4531 35.1536 30.5781 34.2734 30.7031C34.4089 31.0781 34.6198 31.3776 34.9062 31.6016C35.1979 31.8255 35.5443 31.9375 35.9453 31.9375C36.1536 31.9375 36.3802 31.8984 36.625 31.8203C36.875 31.7422 37.1224 31.6458 37.3672 31.5312C37.612 31.4115 37.8464 31.2839 38.0703 31.1484C38.2943 31.013 38.487 30.8906 38.6484 30.7812L38.2734 34.3281C38.0703 34.4844 37.849 34.6172 37.6094 34.7266C37.375 34.8359 37.1302 34.9245 36.875 34.9922C36.6198 35.0599 36.362 35.1094 36.1016 35.1406C35.8411 35.1719 35.5859 35.1875 35.3359 35.1875C34.8203 35.1875 34.349 35.1172 33.9219 34.9766C33.4948 34.8359 33.1068 34.6406 32.7578 34.3906C32.4141 34.1354 32.112 33.8359 31.8516 33.4922C31.5911 33.1484 31.375 32.7734 31.2031 32.3672C31.0312 31.9609 30.901 31.5312 30.8125 31.0781C30.724 30.625 30.6797 30.1667 30.6797 29.7031C30.6797 29.2188 30.724 28.7344 30.8125 28.25C30.901 27.7656 31.0339 27.2995 31.2109 26.8516C31.3932 26.4036 31.6198 25.9896 31.8906 25.6094C32.1667 25.224 32.487 24.888 32.8516 24.6016C33.2161 24.3151 33.6276 24.0911 34.0859 23.9297C34.5495 23.7682 35.0599 23.6875 35.6172 23.6875C36.0807 23.6875 36.5026 23.7526 36.8828 23.8828C37.2682 24.0078 37.6094 24.1849 37.9062 24.4141C38.2083 24.638 38.4688 24.9062 38.6875 25.2188C38.9115 25.5312 39.0938 25.875 39.2344 26.25C39.3802 26.6198 39.487 27.013 39.5547 27.4297C39.6276 27.8411 39.6641 28.2604 39.6641 28.6875ZM36.5391 28.2812C36.5391 28.1354 36.5234 27.987 36.4922 27.8359C36.4609 27.6797 36.4089 27.5391 36.3359 27.4141C36.2682 27.2891 36.1771 27.1875 36.0625 27.1094C35.9479 27.026 35.8047 26.9844 35.6328 26.9844C35.4245 26.9844 35.2396 27.0417 35.0781 27.1562C34.9219 27.2656 34.7865 27.4062 34.6719 27.5781C34.5573 27.7448 34.4635 27.9271 34.3906 28.125C34.3177 28.3229 34.263 28.5052 34.2266 28.6719L36.5391 28.4531V28.2812ZM49.875 31.0469C49.875 31.6354 49.8672 32.2188 49.8516 32.7969C49.8411 33.3698 49.8229 33.9479 49.7969 34.5312L45.2969 34.4531C45.4531 33.5312 45.5885 32.612 45.7031 31.6953C45.8177 30.7734 45.875 29.8438 45.875 28.9062C45.875 28.8385 45.8724 28.7292 45.8672 28.5781C45.862 28.4271 45.8516 28.2578 45.8359 28.0703C45.8203 27.8776 45.7969 27.6823 45.7656 27.4844C45.7396 27.2812 45.7005 27.0964 45.6484 26.9297C45.6016 26.763 45.5417 26.6276 45.4688 26.5234C45.401 26.4141 45.3177 26.3594 45.2188 26.3594C45.0417 26.3594 44.8906 26.4115 44.7656 26.5156C44.6458 26.6198 44.5443 26.7552 44.4609 26.9219C44.3828 27.0833 44.3203 27.2656 44.2734 27.4688C44.2266 27.6719 44.1901 27.875 44.1641 28.0781C44.1432 28.2812 44.1276 28.474 44.1172 28.6562C44.112 28.8333 44.1094 28.9792 44.1094 29.0938C44.0833 30.0156 44.0625 30.9323 44.0469 31.8438C44.0312 32.75 44.0104 33.6667 43.9844 34.5938L40 34.7656C40.1042 32.9271 40.2031 31.099 40.2969 29.2812C40.3958 27.4635 40.474 25.6354 40.5312 23.7969L44.2188 23.6094L44.1875 24.8594C44.3333 24.6823 44.4896 24.5156 44.6562 24.3594C44.8281 24.2031 45.0104 24.0703 45.2031 23.9609C45.3958 23.8464 45.599 23.7578 45.8125 23.6953C46.0312 23.6276 46.2604 23.5938 46.5 23.5938C46.9427 23.5938 47.3307 23.6667 47.6641 23.8125C47.9974 23.9583 48.2839 24.1562 48.5234 24.4062C48.763 24.6562 48.9635 24.9531 49.125 25.2969C49.2865 25.6354 49.4167 25.9974 49.5156 26.3828C49.6146 26.7682 49.6901 27.1719 49.7422 27.5938C49.7943 28.0104 49.8281 28.4219 49.8438 28.8281C49.8646 29.2344 49.875 29.6276 49.875 30.0078C49.875 30.388 49.875 30.7344 49.875 31.0469ZM58.8906 23.9844L58.8125 27.2969L56.4844 27.3906L56.2031 34.6406L52.9062 34.8125L52.6094 27.5625L50.2812 27.6875L50.375 24L58.8906 23.9844ZM26.8672 49.4062C26.6224 49.7135 26.3203 49.9818 25.9609 50.2109C25.6016 50.4401 25.2161 50.6302 24.8047 50.7812C24.3932 50.9323 23.9714 51.0443 23.5391 51.1172C23.1068 51.1953 22.6953 51.2344 22.3047 51.2344C21.5495 51.2344 20.8542 51.099 20.2188 50.8281C19.5833 50.5573 19.0339 50.1849 18.5703 49.7109C18.112 49.2318 17.7526 48.6693 17.4922 48.0234C17.2318 47.3776 17.1016 46.6823 17.1016 45.9375C17.1016 45.3698 17.1667 44.8151 17.2969 44.2734C17.4271 43.7266 17.612 43.2135 17.8516 42.7344C18.0964 42.25 18.3932 41.8073 18.7422 41.4062C19.0911 41 19.487 40.651 19.9297 40.3594C20.3724 40.0677 20.8568 39.8411 21.3828 39.6797C21.9089 39.5182 22.4714 39.4375 23.0703 39.4375C23.2943 39.4375 23.5339 39.4479 23.7891 39.4688C24.0443 39.4844 24.2969 39.5156 24.5469 39.5625C24.8021 39.6042 25.0495 39.6641 25.2891 39.7422C25.5286 39.8203 25.7474 39.9167 25.9453 40.0312L25.7266 43.0156C25.4349 42.9062 25.1328 42.8333 24.8203 42.7969C24.513 42.7552 24.2109 42.7344 23.9141 42.7344C23.4974 42.7344 23.1068 42.7995 22.7422 42.9297C22.3828 43.0547 22.0677 43.237 21.7969 43.4766C21.5312 43.7161 21.3203 44.0078 21.1641 44.3516C21.0078 44.6953 20.9297 45.0833 20.9297 45.5156C20.9297 45.7865 20.9661 46.0495 21.0391 46.3047C21.112 46.5547 21.2214 46.7786 21.3672 46.9766C21.5182 47.1693 21.7031 47.3255 21.9219 47.4453C22.1458 47.5651 22.4036 47.625 22.6953 47.625C22.8932 47.625 23.0964 47.599 23.3047 47.5469C23.5182 47.4948 23.7005 47.4062 23.8516 47.2812L23.8828 46.6719L22.0078 46.6406L22.1016 44.2969C22.8776 44.2708 23.6536 44.25 24.4297 44.2344C25.2057 44.2135 25.987 44.1875 26.7734 44.1562L26.8672 49.4062ZM35.2109 40.0156L34.7734 43.3125C34.6224 43.2708 34.4714 43.2422 34.3203 43.2266C34.1693 43.2109 34.0182 43.2031 33.8672 43.2031C33.4818 43.2031 33.1146 43.2552 32.7656 43.3594C32.4167 43.4583 32.1068 43.612 31.8359 43.8203C31.5703 44.0286 31.3568 44.2891 31.1953 44.6016C31.0391 44.9141 30.9609 45.2812 30.9609 45.7031C30.9609 45.974 31.0026 46.2083 31.0859 46.4062C31.1745 46.6042 31.2969 46.7682 31.4531 46.8984C31.6094 47.0286 31.7943 47.125 32.0078 47.1875C32.2214 47.25 32.4557 47.2812 32.7109 47.2812C32.9036 47.2812 33.1042 47.2604 33.3125 47.2188C33.5208 47.1771 33.7266 47.1224 33.9297 47.0547C34.1328 46.987 34.3307 46.9089 34.5234 46.8203C34.7161 46.7318 34.8932 46.6406 35.0547 46.5469L34.7422 50.2188C34.5391 50.3229 34.3177 50.4167 34.0781 50.5C33.8438 50.5781 33.6016 50.6484 33.3516 50.7109C33.1016 50.7682 32.8516 50.8125 32.6016 50.8438C32.3516 50.875 32.112 50.8906 31.8828 50.8906C31.2214 50.8906 30.6042 50.7682 30.0312 50.5234C29.4583 50.2786 28.9609 49.9427 28.5391 49.5156C28.1172 49.0885 27.7839 48.5859 27.5391 48.0078C27.2995 47.4245 27.1797 46.7969 27.1797 46.125C27.1797 45.2344 27.3073 44.3958 27.5625 43.6094C27.8177 42.8177 28.1927 42.125 28.6875 41.5312C29.1823 40.9375 29.7943 40.4688 30.5234 40.125C31.2578 39.7812 32.1016 39.6094 33.0547 39.6094C33.4141 39.6094 33.7812 39.638 34.1562 39.6953C34.5365 39.7526 34.888 39.8594 35.2109 40.0156ZM43.9609 39.8281L43.8828 43.1406L41.5547 43.2344L40.9609 50.6406L37.6641 50.8125L37.6797 43.4062L35.3516 43.5312L35.4453 39.8438L43.9609 39.8281ZM53.7344 42.3125C53.7344 42.6979 53.7161 43.1224 53.6797 43.5859C53.6432 44.0495 53.5833 44.5286 53.5 45.0234C53.4167 45.5182 53.3073 46.0208 53.1719 46.5312C53.0417 47.0365 52.8776 47.5234 52.6797 47.9922C52.4818 48.4609 52.25 48.901 51.9844 49.3125C51.724 49.7188 51.4219 50.0755 51.0781 50.3828C50.7396 50.6849 50.3594 50.9219 49.9375 51.0938C49.5156 51.2708 49.0469 51.3594 48.5312 51.3594C47.9271 51.3594 47.401 51.2604 46.9531 51.0625C46.5104 50.8698 46.1302 50.6094 45.8125 50.2812C45.4948 49.9479 45.2344 49.5625 45.0312 49.125C44.8281 48.6823 44.6693 48.2161 44.5547 47.7266C44.4401 47.2318 44.3594 46.7292 44.3125 46.2188C44.2708 45.7031 44.25 45.2083 44.25 44.7344C44.25 44.0052 44.2865 43.2786 44.3594 42.5547C44.4323 41.8255 44.5365 41.099 44.6719 40.375L48.3281 40.5156C48.1875 41.3333 48.0651 42.1562 47.9609 42.9844C47.862 43.8073 47.8125 44.6354 47.8125 45.4688C47.8125 45.5573 47.8151 45.6901 47.8203 45.8672C47.8307 46.0391 47.8464 46.2344 47.8672 46.4531C47.888 46.6667 47.9167 46.888 47.9531 47.1172C47.9948 47.3411 48.0495 47.5469 48.1172 47.7344C48.1849 47.9219 48.2656 48.0755 48.3594 48.1953C48.4583 48.3151 48.5729 48.375 48.7031 48.375C48.8542 48.375 48.9896 48.3047 49.1094 48.1641C49.2292 48.0182 49.3333 47.8255 49.4219 47.5859C49.5156 47.3464 49.5964 47.0703 49.6641 46.7578C49.7318 46.4453 49.7891 46.1198 49.8359 45.7812C49.8828 45.4427 49.9193 45.1042 49.9453 44.7656C49.9766 44.4271 50 44.112 50.0156 43.8203C50.0365 43.5286 50.0495 43.2708 50.0547 43.0469C50.0599 42.8229 50.0625 42.6562 50.0625 42.5469C50.0625 42.1406 50.0547 41.737 50.0391 41.3359C50.0286 40.9297 50.0104 40.526 49.9844 40.125H53.6406C53.7031 40.8438 53.7344 41.5729 53.7344 42.3125Z"
        fill="black"
      />
</svg>  